<svg width="241" height="376" viewBox="0 0 241 376" fill="none" xmlns="http://www.w3.org/2000/svg">
<path d="M17.726 181.292C9.59071 167.638 4.28387 152.489 2.121 136.743C1.37352 131.304 0.99898 125.82 1 120.33C1 88.6818 13.5722 58.3299 35.9508 35.9513C58.3294 13.5727 88.6813 1.00049 120.329 1.00049C151.978 1.00049 182.33 13.5727 204.708 35.9513C227.087 58.3299 239.659 88.6818 239.659 120.33C239.659 125.907 239.272 131.477 238.5 137C236.266 152.989 230.791 168.354 222.41 182.153L138.964 336.98L119.082 373.867L17.726 181.292Z" fill="#00BF2D"/>
<path d="M119.071 375.997L118.196 374.333L16.853 181.782C15.4993 179.507 14.2225 177.191 13.0245 174.837C11.8264 172.482 10.707 170.09 9.66819 167.664C8.62934 165.239 7.67102 162.78 6.79501 160.291C5.91901 157.803 5.12532 155.285 4.41577 152.742C3.68324 150.116 3.041 147.466 2.48967 144.795C1.93834 142.124 1.47794 139.433 1.1091 136.725C0.740258 134.018 0.462984 131.295 0.277919 128.561C0.0928545 125.827 0 123.082 0 120.33C0 118.289 0.0514072 116.249 0.153864 114.212C0.256321 112.175 0.409827 110.142 0.614026 108.117C0.818225 106.091 1.07312 104.073 1.37834 102.066C1.68357 100.059 2.03913 98.0625 2.44466 96.0806C2.83993 94.149 3.28382 92.2253 3.77532 90.3129C4.26682 88.4004 4.80593 86.4991 5.39162 84.6123C5.97731 82.7255 6.60958 80.8532 7.28741 78.9988C7.96524 77.1443 8.68862 75.3076 9.45654 73.492C10.2105 71.7095 11.0093 69.9427 11.8512 68.1948C12.6932 66.4468 13.5783 64.7177 14.505 63.0104C15.4318 61.303 16.4 59.6175 17.4082 57.9567C18.4165 56.296 19.4646 54.66 20.5511 53.0518C21.6272 51.4589 22.7433 49.8898 23.8971 48.347C25.0509 46.8043 26.2426 45.2878 27.4698 43.8004C28.6971 42.3129 29.96 40.8544 31.2564 39.4275C32.5528 38.0005 33.8827 36.6052 35.2439 35.2439C36.6052 33.8827 38.0006 32.5528 39.4275 31.2564C40.8544 29.96 42.3129 28.6971 43.8004 27.4698C45.2878 26.2426 46.8043 25.0509 48.347 23.8971C49.8898 22.7433 51.4589 21.6272 53.0518 20.5511C54.66 19.4646 56.296 18.4165 57.9567 17.4082C59.6175 16.4 61.303 15.4318 63.0104 14.505C64.7177 13.5783 66.4468 12.6932 68.1948 11.8512C69.9427 11.0093 71.7095 10.2105 73.492 9.45654C75.3076 8.68862 77.1443 7.96524 78.9988 7.28741C80.8532 6.60958 82.7255 5.97731 84.6123 5.39162C86.4991 4.80593 88.4004 4.26682 90.3129 3.77532C92.2253 3.28382 94.149 2.83993 96.0806 2.44466C98.0624 2.03913 100.059 1.68357 102.066 1.37834C104.073 1.07312 106.091 0.818225 108.117 0.614026C110.142 0.409827 112.175 0.256321 114.212 0.153864C116.249 0.0514072 118.289 0 120.33 0C122.371 0 124.412 0.0514072 126.449 0.153864C128.485 0.256321 130.518 0.409827 132.544 0.614026C134.569 0.818225 136.588 1.07312 138.595 1.37834C140.602 1.68357 142.598 2.03913 144.58 2.44466C146.512 2.83993 148.435 3.28382 150.348 3.77532C152.26 4.26682 154.162 4.80593 156.048 5.39162C157.935 5.97731 159.808 6.60958 161.662 7.28741C163.517 7.96524 165.353 8.68862 167.169 9.45654C168.951 10.2105 170.718 11.0093 172.466 11.8512C174.214 12.6932 175.943 13.5783 177.65 14.505C179.358 15.4318 181.043 16.4 182.704 17.4082C184.365 18.4165 186.001 19.4646 187.609 20.5511C189.202 21.6272 190.771 22.7433 192.314 23.8971C193.857 25.0509 195.373 26.2426 196.861 27.4698C198.348 28.6971 199.807 29.96 201.233 31.2564C202.66 32.5528 204.056 33.8827 205.417 35.2439C206.778 36.6052 208.108 38.0005 209.405 39.4275C210.701 40.8544 211.964 42.3129 213.191 43.8004C214.418 45.2878 215.61 46.8043 216.764 48.347C217.918 49.8898 219.034 51.4589 220.11 53.0518C221.196 54.66 222.245 56.296 223.253 57.9567C224.261 59.6175 225.229 61.303 226.156 63.0104C227.083 64.7177 227.968 66.4468 228.81 68.1948C229.652 69.9427 230.451 71.7095 231.205 73.492C231.973 75.3076 232.696 77.1443 233.374 78.9988C234.052 80.8532 234.684 82.7255 235.27 84.6123C235.855 86.4991 236.394 88.4004 236.886 90.3129C237.377 92.2253 237.821 94.149 238.217 96.0806C238.622 98.0625 238.978 100.059 239.283 102.066C239.588 104.073 239.843 106.091 240.047 108.117C240.251 110.142 240.405 112.175 240.507 114.212C240.61 116.249 240.661 118.289 240.661 120.33C240.661 123.126 240.565 125.915 240.374 128.692C240.183 131.47 239.897 134.235 239.517 136.984C239.136 139.733 238.661 142.466 238.092 145.177C237.523 147.889 236.861 150.579 236.105 153.243C235.373 155.823 234.554 158.376 233.651 160.899C232.748 163.421 231.76 165.913 230.689 168.37C229.618 170.826 228.464 173.248 227.229 175.63C225.994 178.013 224.679 180.355 223.284 182.655L139.845 337.455L119.963 374.342L119.071 375.997ZM120.33 2.00259C104.019 2.00259 88.4676 5.32019 74.3159 11.3161C60.1643 17.3119 47.4123 25.9861 36.6992 36.6992C25.9861 47.4123 17.3119 60.1643 11.3161 74.3159C5.32019 88.4676 2.00259 104.019 2.00259 120.33C2.00259 125.661 2.36101 130.966 3.06817 136.209C3.77532 141.452 4.83121 146.634 6.22615 151.718C7.62108 156.803 9.35507 161.791 11.4184 166.646C13.4818 171.501 15.8745 176.224 18.5869 180.78L18.6003 180.802L18.6125 180.826L119.092 371.737L138.083 336.505L221.533 181.682L221.545 181.659L221.559 181.637C224.355 177.03 226.822 172.249 228.95 167.331C231.077 162.413 232.865 157.358 234.304 152.201C235.742 147.044 236.831 141.786 237.56 136.463C238.289 131.139 238.659 125.75 238.659 120.33C238.659 104.019 235.341 88.4676 229.345 74.3159C223.349 60.1643 214.675 47.4123 203.962 36.6992C193.249 25.9861 180.497 17.3119 166.345 11.3161C152.193 5.32019 136.642 2.00259 120.33 2.00259Z" fill="black"/>
<path d="M120.331 57.2911C136.411 57.3118 151.91 63.3042 163.822 74.1059C175.733 84.9075 183.209 99.7484 184.798 115.75C186.386 131.751 181.975 147.772 172.42 160.705C162.865 173.638 148.847 182.562 133.085 185.744C117.323 188.926 100.941 186.141 87.1163 177.928C73.2918 169.716 63.0103 156.661 58.2663 141.297C53.5223 125.932 54.6539 109.354 61.4416 94.7767C68.2294 80.1996 80.1894 68.6631 95.0017 62.4051C103.016 59.019 111.63 57.2798 120.331 57.2911V57.2911Z" fill="white"/>
<path d="M120.33 185.432C122.459 185.432 124.572 185.327 126.665 185.12C128.758 184.912 130.832 184.601 132.883 184.187C134.933 183.773 136.96 183.256 138.961 182.638C140.962 182.019 142.935 181.298 144.879 180.476C145.813 180.081 146.739 179.662 147.655 179.221C148.571 178.78 149.477 178.316 150.372 177.83C151.267 177.345 152.15 176.837 153.021 176.309C153.891 175.78 154.749 175.231 155.591 174.662C156.426 174.097 157.249 173.512 158.058 172.907C158.866 172.303 159.661 171.678 160.441 171.035C161.221 170.391 161.986 169.729 162.734 169.049C163.482 168.37 164.213 167.673 164.927 166.959C165.64 166.245 166.338 165.514 167.017 164.766C167.697 164.018 168.359 163.253 169.002 162.473C169.646 161.694 170.27 160.899 170.875 160.09C171.48 159.281 172.065 158.459 172.629 157.624C173.199 156.781 173.748 155.923 174.277 155.053C174.805 154.183 175.312 153.299 175.798 152.404C176.284 151.51 176.748 150.603 177.189 149.687C177.63 148.771 178.049 147.845 178.444 146.911C179.266 144.968 179.987 142.994 180.605 140.993C181.224 138.993 181.741 136.965 182.155 134.915C182.569 132.864 182.88 130.791 183.087 128.697C183.295 126.604 183.399 124.491 183.399 122.363C183.399 120.234 183.295 118.121 183.087 116.028C182.88 113.935 182.569 111.861 182.155 109.81C181.741 107.76 181.224 105.733 180.605 103.732C179.987 101.731 179.266 99.7574 178.444 97.8139C178.049 96.8797 177.63 95.9538 177.189 95.0378C176.748 94.1218 176.284 93.2156 175.798 92.3208C175.312 91.426 174.805 90.5426 174.277 89.6722C173.748 88.8018 173.199 87.9444 172.629 87.1015C172.065 86.2665 171.48 85.4439 170.875 84.6352C170.27 83.8264 169.646 83.0315 169.002 82.2517C168.359 81.4719 167.697 80.7073 167.017 79.9593C166.338 79.2112 165.64 78.4797 164.927 77.7661C164.213 77.0525 163.482 76.3553 162.734 75.6756C161.986 74.996 161.221 74.334 160.441 73.6906C159.661 73.0472 158.866 72.4225 158.058 71.8177C157.249 71.2128 156.426 70.6277 155.591 70.0636C154.749 69.4942 153.891 68.9448 153.021 68.4164C152.15 67.888 151.267 67.3805 150.372 66.8949C149.477 66.4092 148.571 65.9453 147.655 65.504C146.739 65.0628 145.813 64.6442 144.879 64.2491C142.935 63.427 140.962 62.7063 138.961 62.0876C136.96 61.4689 134.933 60.9522 132.883 60.5383C130.832 60.1243 128.758 59.8132 126.665 59.6055C124.572 59.3978 122.459 59.2936 120.33 59.2936C118.202 59.2936 116.089 59.3978 113.996 59.6055C111.902 59.8132 109.829 60.1243 107.778 60.5383C105.728 60.9522 103.7 61.4689 101.7 62.0876C99.6991 62.7063 97.7252 63.427 95.7817 64.2491C94.8475 64.6442 93.9216 65.0628 93.0056 65.504C92.0895 65.9453 91.1833 66.4092 90.2886 66.8949C89.3938 67.3805 88.5104 67.888 87.64 68.4164C86.7696 68.9448 85.9122 69.4942 85.0693 70.0636C84.2343 70.6277 83.4117 71.2128 82.603 71.8177C81.7942 72.4225 80.9993 73.0472 80.2195 73.6906C79.4397 74.334 78.6751 74.996 77.9271 75.6756C77.179 76.3553 76.4475 77.0525 75.7339 77.7661C75.0202 78.4797 74.323 79.2112 73.6434 79.9593C72.9638 80.7073 72.3017 81.4719 71.6584 82.2517C71.015 83.0315 70.3903 83.8264 69.7854 84.6352C69.1806 85.4439 68.5955 86.2665 68.0314 87.1015C67.4619 87.9444 66.9126 88.8018 66.3842 89.6722C65.8558 90.5426 65.3483 91.426 64.8626 92.3208C64.3769 93.2156 63.9131 94.1218 63.4718 95.0378C63.0306 95.9538 62.612 96.8797 62.2168 97.8139C61.3948 99.7574 60.674 101.731 60.0553 103.732C59.4366 105.733 58.92 107.76 58.506 109.81C58.0921 111.861 57.781 113.935 57.5733 116.028C57.3656 118.121 57.2614 120.234 57.2614 122.363C57.2614 124.491 57.3656 126.604 57.5733 128.697C57.781 130.791 58.0921 132.864 58.506 134.915C58.92 136.965 59.4366 138.993 60.0553 140.993C60.674 142.994 61.3948 144.968 62.2168 146.911C62.612 147.845 63.0306 148.771 63.4718 149.687C63.9131 150.603 64.3769 151.51 64.8626 152.404C65.3483 153.299 65.8558 154.183 66.3842 155.053C66.9126 155.923 67.4619 156.781 68.0314 157.624C68.5955 158.459 69.1806 159.281 69.7854 160.09C70.3903 160.899 71.015 161.694 71.6584 162.473C72.3017 163.253 72.9638 164.018 73.6434 164.766C74.323 165.514 75.0202 166.245 75.7339 166.959C76.4475 167.673 77.179 168.37 77.9271 169.049C78.6751 169.729 79.4397 170.391 80.2195 171.035C80.9993 171.678 81.7942 172.303 82.603 172.907C83.4117 173.512 84.2343 174.097 85.0693 174.662C85.9122 175.231 86.7696 175.78 87.64 176.309C88.5104 176.837 89.3938 177.345 90.2886 177.83C91.1833 178.316 92.0895 178.78 93.0056 179.221C93.9216 179.662 94.8475 180.081 95.7817 180.476C97.7252 181.298 99.6991 182.019 101.7 182.638C103.7 183.256 105.728 183.773 107.778 184.187C109.829 184.601 111.902 184.912 113.996 185.12C116.089 185.327 118.202 185.432 120.33 185.432ZM120.33 187.434C111.346 187.434 102.787 185.613 95.0016 182.32C87.2165 179.028 80.2056 174.263 74.3178 168.375C68.43 162.487 63.6652 155.476 60.3724 147.691C57.0796 139.906 55.2588 131.347 55.2588 122.363C55.2588 113.378 57.0796 104.819 60.3724 97.0338C63.6652 89.2487 68.43 82.2378 74.3178 76.35C80.2056 70.4622 87.2165 65.6975 95.0016 62.4047C102.787 59.1119 111.346 57.291 120.33 57.291C129.315 57.291 137.874 59.1119 145.659 62.4047C153.444 65.6975 160.455 70.4622 166.343 76.35C172.231 82.2378 176.995 89.2487 180.288 97.0338C183.581 104.819 185.402 113.378 185.402 122.363C185.402 131.347 183.581 139.906 180.288 147.691C176.995 155.476 172.231 162.487 166.343 168.375C160.455 174.263 153.444 179.028 145.659 182.32C137.874 185.613 129.315 187.434 120.33 187.434Z" fill="black"/>
</svg>
