<svg width="24px" height="24px" viewBox="0 0 10 10" fill="none" xmlns="http://www.w3.org/2000/svg">
<g clip-path="url(#clip0_1056_3414)">
<path d="M5.83301 5.20703C5.83301 5.5522 5.55317 5.83203 5.20801 5.83203C4.86284 5.83203 4.58301 5.5522 4.58301 5.20703C4.58301 4.86186 4.86284 4.58203 5.20801 4.58203C5.55317 4.58203 5.83301 4.86186 5.83301 5.20703Z" fill="white"/>
<path d="M6.875 4.16601C7.22017 4.16601 7.5 3.88619 7.5 3.54102C7.5 3.19584 7.22017 2.91602 6.875 2.91602C6.52983 2.91602 6.25 3.19584 6.25 3.54102C6.25 3.88619 6.52983 4.16601 6.875 4.16601Z" fill="white"/>
<path d="M5.41602 2.70703C5.41602 3.05221 5.13618 3.33203 4.79102 3.33203C4.44585 3.33203 4.16602 3.05221 4.16602 2.70703C4.16602 2.36186 4.44585 2.08203 4.79102 2.08203C5.13618 2.08203 5.41602 2.36186 5.41602 2.70703Z" fill="white"/>
<path d="M3.125 5C3.47018 5 3.75 4.72016 3.75 4.375C3.75 4.02983 3.47018 3.75 3.125 3.75C2.77982 3.75 2.5 4.02983 2.5 4.375C2.5 4.72016 2.77982 5 3.125 5Z" fill="white"/>
<path d="M5.83301 7.29102C5.83301 7.63618 5.55317 7.91602 5.20801 7.91602C4.86284 7.91602 4.58301 7.63618 4.58301 7.29102C4.58301 6.94585 4.86284 6.66602 5.20801 6.66602C5.55317 6.66602 5.83301 6.94585 5.83301 7.29102Z" fill="white"/>
<path d="M3.125 7.08203C3.47018 7.08203 3.75 6.8022 3.75 6.45703C3.75 6.11186 3.47018 5.83203 3.125 5.83203C2.77982 5.83203 2.5 6.11186 2.5 6.45703C2.5 6.8022 2.77982 7.08203 3.125 7.08203Z" fill="white"/>
<path fill-rule="evenodd" clip-rule="evenodd" d="M4.79207 0.425449C6.41841 0.329448 8.1512 0.96807 9.08666 2.25427C9.3782 2.65507 9.5092 3.18134 9.43674 3.67936C9.36261 4.18872 9.07195 4.67935 8.51937 4.9556C8.18257 5.12401 7.82182 5.39397 7.59974 5.69455C7.38128 5.9903 7.33882 6.2461 7.4557 6.47993C7.67599 6.92047 7.87028 7.4686 7.83745 7.99435C7.82049 8.26518 7.74253 8.53897 7.56903 8.78285C7.39503 9.02735 7.14337 9.21589 6.82112 9.3448C6.08699 9.63843 5.26132 9.65135 4.50307 9.50818C3.74378 9.36476 3.01839 9.05876 2.4691 8.6743C1.66873 8.11405 1.03076 7.36993 0.713744 6.43555C0.395698 5.4981 0.414661 4.41001 0.858131 3.1904C1.51784 1.3761 3.15073 0.522341 4.79207 0.425449ZM4.8412 1.25734C3.44382 1.33982 2.16004 2.04855 1.6413 3.47517C1.25142 4.54739 1.25548 5.43855 1.5029 6.1678C1.75134 6.9001 2.25921 7.51018 2.94698 7.9916C3.39305 8.30385 4.00674 8.56639 4.6577 8.6893C5.30978 8.81247 5.96557 8.78951 6.51161 8.57105C6.7947 8.45785 6.98628 8.25368 7.00574 7.94235C7.02495 7.63476 6.90674 7.24543 6.71036 6.8526C6.40132 6.23451 6.60561 5.6378 6.92949 5.19939C7.24978 4.76585 7.72699 4.4201 8.1467 4.21026C8.42745 4.06988 8.57249 3.83132 8.61207 3.55937C8.65328 3.27607 8.57599 2.96888 8.41274 2.74442C7.68153 1.73908 6.25357 1.17396 4.8412 1.25734Z" fill="white"/>
</g>
<defs>
<clipPath id="clip0_1056_3414">
<rect width="10" height="10" fill="white"/>
</clipPath>
</defs>
</svg>
