<svg width="24px" height="24px" viewBox="0 0 10 10" fill="none" xmlns="http://www.w3.org/2000/svg">
<g clip-path="url(#clip0_1056_3411)">
<path d="M9.16669 5.0438C9.16669 5.86792 8.92231 6.67353 8.46445 7.35877C8.0066 8.044 7.35582 8.57808 6.59443 8.89346C5.83304 9.20883 4.99523 9.29135 4.18694 9.13057C3.37865 8.96979 2.63619 8.57294 2.05345 7.9902C1.47071 7.40745 1.07385 6.66499 0.913074 5.85671C0.752296 5.04842 0.834813 4.2106 1.15019 3.44921C1.46557 2.68782 1.99964 2.03705 2.68488 1.57919C3.37011 1.12133 4.17573 0.876953 4.99985 0.876953C5.54705 0.876953 6.08889 0.984732 6.59443 1.19414C7.09998 1.40354 7.55933 1.71047 7.94625 2.09739C8.33318 2.48432 8.64011 2.94367 8.84951 3.44921C9.05892 3.95476 9.16669 4.4966 9.16669 5.0438ZM6.88301 3.29011C6.88273 3.17973 6.8388 3.07395 6.7608 2.99585C6.6828 2.91775 6.57707 2.87369 6.46669 2.87327H6.32564V3.27695C6.32536 3.43162 6.26376 3.57987 6.15434 3.68919C6.04493 3.7985 5.89663 3.85997 5.74196 3.86011H4.20511C4.05035 3.86011 3.90192 3.79871 3.79239 3.68937C3.68286 3.58004 3.62118 3.43171 3.6209 3.27695V2.87327H3.48038C3.36991 2.87355 3.26405 2.91755 3.18593 2.99567C3.10782 3.07378 3.06381 3.17964 3.06354 3.29011V7.18643C3.06381 7.29689 3.10782 7.40276 3.18593 7.48087C3.26405 7.55898 3.36991 7.60299 3.48038 7.60327H6.46617C6.57654 7.60285 6.68227 7.55878 6.76027 7.48069C6.83827 7.40259 6.88221 7.2968 6.88248 7.18643L6.88301 3.29011ZM6.31617 4.61748H3.57196V5.03432H6.31617V4.61748ZM6.31617 5.51906H3.57196V5.9359H6.31617V5.51906ZM6.31617 6.42064H3.57196V6.83695H6.31617V6.42064ZM4.03827 3.27695C4.03841 3.32116 4.05603 3.36352 4.08729 3.39478C4.11855 3.42603 4.16091 3.44366 4.20511 3.4438H5.74196C5.78616 3.44366 5.82852 3.42603 5.85978 3.39478C5.89104 3.36352 5.90866 3.32116 5.9088 3.27695V2.7959C5.90866 2.75178 5.89111 2.70951 5.85997 2.67826C5.82882 2.64702 5.7866 2.62934 5.74248 2.62906H5.44933V2.18537C5.44905 2.14126 5.43136 2.09904 5.40012 2.06789C5.36888 2.03675 5.3266 2.0192 5.28248 2.01906H4.66512C4.621 2.0192 4.57872 2.03675 4.54748 2.06789C4.51623 2.09904 4.49855 2.14126 4.49827 2.18537V2.62906H4.20511C4.16091 2.6292 4.11855 2.64682 4.08729 2.67808C4.05603 2.70934 4.03841 2.75169 4.03827 2.7959V3.27695ZM4.76669 2.44485C4.76669 2.40363 4.77892 2.36333 4.80182 2.32906C4.82472 2.29478 4.85727 2.26807 4.89536 2.25229C4.93344 2.23652 4.97535 2.23239 5.01578 2.24043C5.05621 2.24847 5.09334 2.26832 5.12249 2.29747C5.15164 2.32662 5.17149 2.36376 5.17953 2.40419C5.18757 2.44462 5.18345 2.48652 5.16767 2.52461C5.1519 2.56269 5.12518 2.59524 5.09091 2.61814C5.05663 2.64105 5.01634 2.65327 4.97512 2.65327C4.91984 2.65327 4.86683 2.63131 4.82774 2.59222C4.78865 2.55314 4.76669 2.50012 4.76669 2.44485Z" fill="white"/>
</g>
<defs>
<clipPath id="clip0_1056_3411">
<rect width="10" height="10" fill="white"/>
</clipPath>
</defs>
</svg>
