<svg version="1.1" id="Uploaded to svgrepo.com" xmlns="http://www.w3.org/2000/svg" xmlns:xlink="http://www.w3.org/1999/xlink" width="24px" height="24px" viewBox="0 0 32 32" xml:space="preserve" fill="#ffffff" stroke="#ffffff">

<g id="SVGRepo_bgCarrier" stroke-width="0"/>

<g id="SVGRepo_tracerCarrier" stroke-linecap="round" stroke-linejoin="round"/>

<g id="SVGRepo_iconCarrier"> <style type="text/css"> .open_een{fill:#0B1719;} </style> <g> <g> <path class="open_een" d="M17.5,12h-5c-0.276,0-0.5-0.224-0.5-0.5s0.224-0.5,0.5-0.5h5c0.276,0,0.5,0.224,0.5,0.5 S17.776,12,17.5,12z"/> <path class="open_een" d="M19.5,15h-9c-0.276,0-0.5-0.224-0.5-0.5s0.224-0.5,0.5-0.5h9c0.276,0,0.5,0.224,0.5,0.5 S19.776,15,19.5,15z"/> <path class="open_een" d="M19.5,18h-9c-0.276,0-0.5-0.224-0.5-0.5s0.224-0.5,0.5-0.5h9c0.276,0,0.5,0.224,0.5,0.5 S19.776,18,19.5,18z"/> <path class="open_een" d="M25.5,2h-15C10.224,2,10,2.224,10,2.5S10.224,3,10.5,3H23v26H6.5C6.224,29,6,28.775,6,28.5v-25 C6,3.225,6.224,3,6.5,3h1C7.776,3,8,2.776,8,2.5S7.776,2,7.5,2h-1C5.673,2,5,2.673,5,3.5v25C5,29.327,5.673,30,6.5,30h19 c0.827,0,1.5-0.673,1.5-1.5v-25C27,2.673,26.327,2,25.5,2z M26,28.5c0,0.275-0.224,0.5-0.5,0.5H24V3h1.5C25.776,3,26,3.225,26,3.5 V28.5z"/> </g> <g> <path class="open_een" d="M17.5,12h-5c-0.276,0-0.5-0.224-0.5-0.5s0.224-0.5,0.5-0.5h5c0.276,0,0.5,0.224,0.5,0.5 S17.776,12,17.5,12z"/> <path class="open_een" d="M19.5,15h-9c-0.276,0-0.5-0.224-0.5-0.5s0.224-0.5,0.5-0.5h9c0.276,0,0.5,0.224,0.5,0.5 S19.776,15,19.5,15z"/> <path class="open_een" d="M19.5,18h-9c-0.276,0-0.5-0.224-0.5-0.5s0.224-0.5,0.5-0.5h9c0.276,0,0.5,0.224,0.5,0.5 S19.776,18,19.5,18z"/> <path class="open_een" d="M25.5,2h-15C10.224,2,10,2.224,10,2.5S10.224,3,10.5,3H23v26H6.5C6.224,29,6,28.775,6,28.5v-25 C6,3.225,6.224,3,6.5,3h1C7.776,3,8,2.776,8,2.5S7.776,2,7.5,2h-1C5.673,2,5,2.673,5,3.5v25C5,29.327,5.673,30,6.5,30h19 c0.827,0,1.5-0.673,1.5-1.5v-25C27,2.673,26.327,2,25.5,2z M26,28.5c0,0.275-0.224,0.5-0.5,0.5H24V3h1.5C25.776,3,26,3.225,26,3.5 V28.5z"/> </g> </g> </g>

</svg>