<svg width="245" height="382" viewBox="0 0 245 382" fill="none" xmlns="http://www.w3.org/2000/svg">
<path d="M20.1498 183.057C9.38332 164.927 3.62007 144.264 3.44829 123.178C3.27652 102.092 8.70237 81.3385 19.1721 63.0348C29.6418 44.7312 44.7804 29.5331 63.0429 18.9917C81.3054 8.45035 102.038 2.94319 123.124 3.03231C144.21 3.12144 164.895 8.80365 183.068 19.499C201.241 30.1944 216.25 45.5199 226.565 63.9114C236.88 82.3029 242.13 103.102 241.78 124.185C241.43 145.269 235.492 165.882 224.573 183.921L141.234 338.544L121.378 375.383L20.1498 183.057Z" fill="#00BF2D" stroke="black" stroke-width="6"/>
<path d="M122.624 189.191C158.515 189.191 187.611 160.095 187.611 124.204C187.611 88.3125 158.515 59.2168 122.624 59.2168C86.7324 59.2168 57.6367 88.3125 57.6367 124.204C57.6367 160.095 86.7324 189.191 122.624 189.191Z" fill="white"/>
<path d="M122.624 187.191C157.41 187.191 185.611 158.991 185.611 124.204C185.611 89.417 157.41 61.2168 122.624 61.2168C87.837 61.2168 59.6367 89.417 59.6367 124.204C59.6367 158.991 87.837 187.191 122.624 187.191Z" stroke="black" stroke-width="6"/>
</svg>
