<svg width="197" height="307" viewBox="0 0 197 307" fill="none" xmlns="http://www.w3.org/2000/svg">
<g filter="url(#filter0_d_26_246)">
<path d="M41.7726 255.219V109.13C39.9486 109.623 27.9156 112.766 23.6876 111.058C22.1176 110.215 22.7056 102.303 23.6876 101.666C26.8546 97.8789 39.8676 94.0273 41.7726 93.4793V49.1795C41.7726 49.1795 43.8336 7.28643 103.586 5.22543C163.338 3.16443 170.204 49.1795 170.204 49.1795V93.7C173.579 94.708 184.65 98.2138 187.54 101.667C188.52 102.304 189.11 110.216 187.54 111.059C183.701 112.61 173.428 110.159 170.204 109.33V255.221C170.204 265.694 159.299 281.32 103.586 281.32C47.8726 281.32 41.7726 265.694 41.7726 255.219Z" fill="#05BB00"/>
</g>
<path d="M68.8494 123.365L53.4553 89.6968C53.4553 89.6968 98.4225 62.7648 156.615 89.6968L141.706 123.362C141.706 123.362 107.565 106.051 68.8494 123.365Z" fill="black"/>
<path d="M147.001 137.793L157.822 117.353V218.353L147.001 202.963V137.793Z" fill="black"/>
<path d="M52.2573 117.353V219.311L63.7993 201.757V136.35L52.2573 117.353Z" fill="black"/>
<path d="M59.7124 244.801L72.4575 223.159C72.4575 223.159 100.111 235.182 138.345 223.159L151.571 244.801C151.571 244.801 112.615 266.919 59.7124 244.801Z" fill="black"/>
<path d="M78.6584 21.3002C74.2194 18.5252 66.6354 24.6299 61.2704 29.8089C55.9054 34.9879 52.9936 38.549 53.3166 43.867C53.6396 49.185 59.3274 51.5269 62.5654 51.0809C65.8034 50.6349 69.8256 45.3931 73.8486 37.9481C77.8716 30.5031 83.0944 24.0712 78.6584 21.3002Z" fill="black"/>
<path d="M132.662 21.3002C137.101 18.5252 144.684 24.6299 150.049 29.8089C155.414 34.9879 158.327 38.549 158.004 43.867C157.681 49.185 151.993 51.5269 148.755 51.0809C145.517 50.6349 141.494 45.3931 137.47 37.9481C133.446 30.5031 128.223 24.0712 132.662 21.3002Z" fill="black"/>
<defs>
<filter id="filter0_d_26_246" x="0.718262" y="0.158203" width="195.791" height="306.162" filterUnits="userSpaceOnUse" color-interpolation-filters="sRGB">
<feFlood flood-opacity="0" result="BackgroundImageFix"/>
<feColorMatrix in="SourceAlpha" type="matrix" values="0 0 0 0 0 0 0 0 0 0 0 0 0 0 0 0 0 0 127 0" result="hardAlpha"/>
<feOffset dx="-7" dy="10"/>
<feGaussianBlur stdDeviation="7.5"/>
<feColorMatrix type="matrix" values="0 0 0 0 0 0 0 0 0 0 0 0 0 0 0 0 0 0 0.31 0"/>
<feBlend mode="normal" in2="BackgroundImageFix" result="effect1_dropShadow_26_246"/>
<feBlend mode="normal" in="SourceGraphic" in2="effect1_dropShadow_26_246" result="shape"/>
</filter>
</defs>
</svg>
