<svg width="668" height="681" viewBox="0 0 668 681" fill="none" xmlns="http://www.w3.org/2000/svg">
<path d="M275.47 106.799L333.47 73.4658L566.803 206.799L461.803 267.799C454.179 272.196 448.603 279.431 446.292 287.924C443.982 296.417 445.124 305.479 449.47 313.132C451.647 316.952 454.559 320.303 458.037 322.993C461.516 325.682 465.492 327.657 469.736 328.803C473.981 329.95 478.41 330.245 482.77 329.672C487.129 329.099 491.332 327.67 495.136 325.466L650.136 235.799C655.266 232.892 659.533 228.676 662.502 223.581C665.471 218.487 667.035 212.696 667.035 206.799C667.035 200.903 665.471 195.112 662.502 190.017C659.533 184.922 655.266 180.706 650.136 177.799L350.136 4.46582C345.069 1.54021 339.321 0 333.47 0C327.618 0 321.87 1.54021 316.803 4.46582L242.136 47.7992C238.317 49.9768 234.966 52.8886 232.276 56.3669C229.587 59.8451 227.612 63.821 226.466 68.0657C225.319 72.3104 225.024 76.7399 225.597 81.0992C226.17 85.4585 227.599 89.6614 229.803 93.4658C231.896 97.3694 234.745 100.817 238.185 103.607C241.626 106.396 245.587 108.473 249.839 109.714C254.091 110.955 258.547 111.337 262.948 110.836C267.348 110.336 271.605 108.963 275.47 106.799ZM57.1364 16.4658C54.0284 13.3579 50.3388 10.8925 46.278 9.21049C42.2173 7.52848 37.865 6.66277 33.4697 6.66277C29.0744 6.66277 24.7221 7.52848 20.6614 9.21049C16.6007 10.8925 12.911 13.3579 9.80305 16.4658C3.52626 22.7426 0 31.2558 0 40.1325C0 49.0092 3.52626 57.5224 9.80305 63.7992L84.8031 140.132L18.1364 179.132C13.0065 182.04 8.73952 186.256 5.77087 191.35C2.80222 196.445 1.23811 202.236 1.23811 208.132C1.23811 214.029 2.80222 219.82 5.77087 224.915C8.73952 230.009 13.0065 234.225 18.1364 237.132L318.136 410.466C323.204 413.391 328.952 414.932 334.803 414.932C340.654 414.932 346.402 413.391 351.47 410.466L354.803 408.466L390.47 444.132L334.803 477.466L50.1364 311.132C46.3281 308.944 42.1259 307.527 37.7699 306.962C33.4139 306.397 28.9893 306.696 24.7487 307.841C20.5082 308.987 16.5348 310.956 13.0553 313.637C9.57579 316.318 6.65841 319.657 4.46972 323.466C2.28102 327.274 0.863862 331.476 0.299156 335.832C-0.265551 340.188 0.0332511 344.613 1.17851 348.853C2.32376 353.094 4.29304 357.067 6.97391 360.547C9.65477 364.026 12.9947 366.944 16.8031 369.132L316.803 542.466C321.883 545.345 327.63 546.839 333.47 546.799C339.309 546.839 345.056 545.345 350.136 542.466L437.803 491.799L473.47 527.466L333.47 606.799L50.1364 444.466C42.4451 440.046 33.3129 438.862 24.7487 441.175C16.1846 443.488 8.89 449.108 4.46972 456.799C0.0494495 464.49 -1.13443 473.623 1.17851 482.187C3.49146 490.751 9.11178 498.046 16.8031 502.466L316.803 675.799C321.87 678.725 327.618 680.265 333.47 680.265C339.321 680.265 345.069 678.725 350.136 675.799L522.47 575.799L609.803 663.466C612.902 666.59 616.588 669.07 620.65 670.762C624.712 672.454 629.069 673.326 633.47 673.326C637.87 673.326 642.227 672.454 646.289 670.762C650.351 669.07 654.038 666.59 657.136 663.466C660.261 660.367 662.74 656.68 664.433 652.618C666.125 648.556 666.996 644.199 666.996 639.799C666.996 635.399 666.125 631.042 664.433 626.98C662.74 622.918 660.261 619.231 657.136 616.132L57.1364 16.4658ZM100.136 206.799L133.47 187.466L225.136 279.132L100.136 206.799ZM616.803 311.132L546.136 351.799C538.445 356.219 532.825 363.514 530.512 372.078C528.199 380.642 529.383 389.775 533.803 397.466C538.223 405.157 545.518 410.777 554.082 413.09C562.646 415.403 571.778 414.219 579.47 409.799L650.136 369.132C653.945 366.944 657.285 364.026 659.965 360.547C662.646 357.067 664.616 353.094 665.761 348.853C666.906 344.613 667.205 340.188 666.64 335.832C666.076 331.476 664.658 327.274 662.47 323.466C660.281 319.657 657.364 316.318 653.884 313.637C650.405 310.956 646.431 308.987 642.191 307.841C637.95 306.696 633.526 306.397 629.17 306.962C624.813 307.527 620.611 308.944 616.803 311.132Z" fill="black"/>
</svg>
