<svg width="667" height="680" viewBox="0 0 667 680" fill="none" xmlns="http://www.w3.org/2000/svg">
<path d="M16.6799 235.132L316.68 408.466C321.747 411.391 327.495 412.932 333.347 412.932C339.198 412.932 344.946 411.391 350.013 408.466L650.013 235.132C655.051 232.224 659.24 228.048 662.164 223.019C665.088 217.99 666.645 212.283 666.68 206.466C666.703 200.592 665.174 194.817 662.247 189.724C659.32 184.631 655.1 180.403 650.013 177.466L350.013 4.46582C344.946 1.54021 339.198 0 333.347 0C327.495 0 321.747 1.54021 316.68 4.46582L16.6799 177.466C11.5931 180.403 7.37261 184.631 4.44583 189.724C1.51905 194.817 -0.0100952 200.592 0.0132237 206.466C0.048336 212.283 1.60519 217.99 4.52905 223.019C7.45291 228.048 11.642 232.224 16.6799 235.132ZM333.347 73.1325L566.68 206.466L333.347 339.799L100.013 206.466L333.347 73.1325ZM616.68 312.132L333.347 473.132L50.0132 310.799C46.2088 308.595 42.0059 307.166 37.6466 306.593C33.2873 306.02 28.8578 306.315 24.6131 307.462C20.3684 308.608 16.3925 310.583 12.9143 313.272C9.43602 315.962 6.52423 319.313 4.34656 323.132C0.00081112 330.786 -1.1414 339.848 1.16916 348.341C3.47973 356.834 9.0555 364.068 16.6799 368.466L316.68 541.799C321.747 544.725 327.495 546.265 333.347 546.265C339.198 546.265 344.946 544.725 350.013 541.799L650.013 368.466C657.638 364.068 663.213 356.834 665.524 348.341C667.835 339.848 666.692 330.786 662.347 323.132C660.169 319.313 657.257 315.962 653.779 313.272C650.301 310.583 646.325 308.608 642.08 307.462C637.835 306.315 633.406 306.02 629.046 306.593C624.687 307.166 620.484 308.595 616.68 310.799V312.132ZM616.68 445.466L333.347 606.466L50.0132 444.132C46.2088 441.929 42.0059 440.499 37.6466 439.926C33.2873 439.353 28.8578 439.649 24.6131 440.795C20.3684 441.941 16.3925 443.916 12.9143 446.606C9.43602 449.295 6.52423 452.646 4.34656 456.466C0.00081112 464.12 -1.1414 473.182 1.16916 481.675C3.47973 490.167 9.0555 497.402 16.6799 501.799L316.68 675.132C321.747 678.058 327.495 679.598 333.347 679.598C339.198 679.598 344.946 678.058 350.013 675.132L650.013 501.799C657.638 497.402 663.213 490.167 665.524 481.675C667.835 473.182 666.692 464.12 662.347 456.466C660.169 452.646 657.257 449.295 653.779 446.606C650.301 443.916 646.325 441.941 642.08 440.795C637.835 439.649 633.406 439.353 629.046 439.926C624.687 440.499 620.484 441.929 616.68 444.132V445.466Z" fill="black"/>
</svg>
