<svg width="512" height="457" viewBox="0 0 512 457" fill="none" xmlns="http://www.w3.org/2000/svg">
<path d="M53.2 0H414.38C429.01 0 442.29 6.04 451.9 15.65L452.79 16.62C461.92 26.2 467.57 39.16 467.57 53.21V205.92C452.414 201.581 436.725 199.383 420.96 199.39C413.2 199.39 405.57 199.93 398.08 200.94L438.95 162.91V53.21C438.95 46.84 436.42 40.91 432.31 36.48L431.67 35.88C427.21 31.42 421.08 28.62 414.38 28.62H53.2C46.9943 28.6117 41.0161 30.9558 36.47 35.18L35.85 35.85C31.39 40.3 28.62 46.46 28.62 53.21V243.75C60.29 215.18 110.99 175.26 143 148.36C148.23 143.84 156 143.93 161.13 148.31C162.17 149.18 162.94 150.22 163.8 151.26L238.38 264.36L265.03 183.23C267.17 171.9 280.55 168.14 288.66 175.67L336.86 221.83C328.53 226.62 320.66 232.12 313.31 238.22L288.5 214.41L261.3 298.77C259.59 310.71 244.76 315.24 236.76 306.04L150.8 179.32L28.62 281.77V367.1C28.62 373.8 31.42 379.94 35.88 384.39C40.37 388.88 46.55 391.69 53.2 391.69H254.02C255.4 401.52 257.63 411.09 260.64 420.31H53.2C38.66 420.31 25.31 414.29 15.65 404.63C6.04 395.02 0 381.71 0 367.1V53.21C0 38.57 5.99 25.25 15.62 15.62L16.6 14.72C26.18 5.62 39.08 0 53.2 0ZM444.29 339.38C436.29 339.88 429.4 333.81 428.9 325.81C428.4 317.82 434.48 310.92 442.47 310.43L461.67 309.18C459.59 306.664 457.338 304.295 454.93 302.09C450 297.64 444.41 293.76 438.25 290.7C420.43 281.9 400.71 281.13 383.25 287.02C365.85 292.9 350.66 305.44 341.85 323.24C333.04 341.05 332.27 360.78 338.17 378.24C344.05 395.65 356.6 410.82 374.38 419.63C391.18 427.94 409.67 429.1 426.34 424.28C443.17 419.4 458.17 408.43 467.78 392.6C471.92 385.77 480.82 383.58 487.65 387.72C494.48 391.86 496.67 400.76 492.53 407.59C479.02 429.85 457.98 445.26 434.4 452.09C410.99 458.87 385.08 457.25 361.56 445.63C336.59 433.26 318.97 411.92 310.69 387.43C302.44 362.98 303.52 335.36 315.85 310.42C328.22 285.43 349.57 267.82 374.07 259.54C398.49 251.3 426.11 252.36 451.06 264.71C459.82 269.04 467.65 274.45 474.44 280.66C477 283.02 479.41 285.47 481.68 288.02L480.95 269.63C480.64 261.63 486.86 254.89 494.85 254.58C502.85 254.27 509.59 260.49 509.9 268.49L511.97 320.48C512.47 328.47 506.39 335.37 498.4 335.87L444.29 339.38ZM286.88 65.47C298.7 65.47 309.44 70.27 317.2 78.03C324.96 85.79 329.76 96.51 329.76 108.35C329.76 120.16 324.96 130.9 317.2 138.66C309.44 146.42 298.7 151.23 286.88 151.23C275.04 151.23 264.33 146.42 256.57 138.66C248.8 130.9 244 120.16 244 108.35C244 96.51 248.8 85.79 256.57 78.03C264.33 70.27 275.04 65.47 286.88 65.47ZM299.96 95.26C296.63 91.93 291.99 89.86 286.88 89.86C281.77 89.86 277.13 91.93 273.8 95.26C272.081 96.9786 270.719 99.0196 269.79 101.266C268.862 103.512 268.386 105.919 268.39 108.35C268.39 113.46 270.46 118.09 273.8 121.43C275.516 123.149 277.555 124.512 279.8 125.441C282.045 126.369 284.451 126.845 286.88 126.84C291.99 126.84 296.63 124.77 299.96 121.43C303.3 118.09 305.37 113.46 305.37 108.35C305.37 103.24 303.3 98.6 299.96 95.26Z" fill="black"/>
</svg>
