<svg width="512" height="463" viewBox="0 0 512 463" fill="none" xmlns="http://www.w3.org/2000/svg">
<path d="M49.68 0H386.97C400.62 0 413.03 5.64 422 14.61L422.83 15.52C431.36 24.46 436.63 36.57 436.63 49.69V192.3C422.81 188.34 408.21 186.2 393.11 186.2C385.86 186.2 378.73 186.7 371.74 187.65L409.91 152.13V49.69C409.91 43.74 407.55 38.2 403.71 34.07L403.11 33.51C398.95 29.35 393.22 26.72 386.97 26.72H49.68C43.63 26.72 38.13 29.07 34.06 32.86L33.48 33.48C29.31 37.64 26.72 43.39 26.72 49.69V227.62C56.3 200.95 103.64 163.67 133.54 138.54C138.42 134.32 145.68 134.41 150.47 138.5C151.44 139.31 152.16 140.29 152.97 141.25L222.61 246.87L247.5 171.11C249.49 160.53 261.98 157.02 269.56 164.05L314.57 207.15C306.79 211.63 299.44 216.77 292.58 222.47L269.41 200.23L244.01 279.01C242.41 290.16 228.57 294.39 221.09 285.79L140.82 167.45L26.72 263.13V342.81C26.72 349.07 29.34 354.8 33.51 358.96C37.7 363.16 43.46 365.78 49.68 365.78H237.21C238.51 374.96 240.59 383.89 243.4 392.5H49.68C36.1 392.5 23.64 386.88 14.61 377.86C5.64 368.88 0 356.46 0 342.81V49.69C0 36.02 5.59 23.58 14.58 14.58L15.5 13.75C24.44 5.25 36.49 0 49.68 0ZM424.76 299.72L437.04 311.99C439.91 314.87 439.91 319.7 437.04 322.57L415.98 343.63L437.04 364.7C439.92 367.58 439.92 372.4 437.04 375.28L424.76 387.56C421.89 390.43 417.1 390.47 414.18 387.56L393.12 366.49L372.04 387.57C369.16 390.45 364.38 390.48 361.46 387.57L349.19 375.29C346.27 372.38 346.27 367.62 349.19 364.71L370.26 343.64L349.2 322.57C346.29 319.66 346.29 314.9 349.2 311.99L361.48 299.71C364.39 296.8 369.18 296.83 372.06 299.71L393.12 320.78L414.18 299.72C417.09 296.81 421.91 296.87 424.76 299.72ZM393.11 224.75C425.94 224.75 455.67 238.06 477.17 259.57C498.69 281.09 512 310.81 512 343.64C512 376.47 498.69 406.21 477.18 427.71C455.67 449.23 425.94 462.54 393.11 462.54C360.28 462.54 330.55 449.23 309.04 427.71C287.53 406.21 274.22 376.47 274.22 343.64C274.22 310.84 287.53 281.14 309.04 259.62C330.6 238.06 360.31 224.75 393.11 224.75ZM460.94 275.8C443.6 258.46 419.6 247.71 393.11 247.71C366.6 247.71 342.6 258.44 325.25 275.78C307.9 293.13 297.18 317.14 297.18 343.64C297.18 370.13 307.92 394.14 325.27 411.48C342.62 428.84 366.62 439.58 393.11 439.58C419.6 439.58 443.6 428.84 460.95 411.48C478.29 394.14 489.04 370.13 489.04 343.64C489.04 317.16 478.29 293.16 460.94 275.8ZM267.9 61.14C278.93 61.14 288.96 65.62 296.21 72.87C303.46 80.12 307.94 90.13 307.94 101.18C307.94 112.21 303.46 122.24 296.21 129.49C288.96 136.74 278.93 141.22 267.9 141.22C256.85 141.22 246.84 136.74 239.59 129.49C232.34 122.24 227.86 112.21 227.86 101.18C227.86 90.13 232.34 80.12 239.59 72.87C246.84 65.62 256.85 61.14 267.9 61.14ZM280.12 88.96C276.877 85.7233 272.482 83.9068 267.9 83.91C263.13 83.91 258.8 85.85 255.68 88.96C252.443 92.2028 250.627 96.5983 250.63 101.18C250.63 105.95 252.57 110.28 255.68 113.4C258.8 116.51 263.13 118.45 267.9 118.45C272.67 118.45 277 116.51 280.12 113.4C283.23 110.28 285.17 105.95 285.17 101.18C285.17 96.41 283.23 92.08 280.12 88.96Z" fill="black"/>
</svg>
