<svg width="800" height="800" viewBox="0 0 800 800" fill="none" xmlns="http://www.w3.org/2000/svg">
<path d="M779.753 799.506C790.947 799.506 800 790.453 800 779.259V186.996C800 181.07 797.366 175.473 792.922 171.687L597.531 4.60905C597.202 4.27983 596.872 4.11523 596.543 3.95062C596.049 3.6214 595.72 3.29218 595.226 2.96296C594.568 2.63374 594.074 2.30453 593.416 1.97531C592.922 1.8107 592.428 1.48148 591.934 1.31687C591.276 0.987654 590.453 0.823045 589.794 0.658436C589.3 0.493827 588.807 0.329218 588.313 0.329218C586.996 0.164609 585.844 0 584.527 0H20.2469C9.0535 0 0 9.0535 0 20.2469V779.588C0 790.782 9.0535 799.835 20.2469 799.835H779.753V799.506ZM632.922 759.177H167.078V456.132C167.078 450.041 172.016 445.267 177.942 445.267H622.058C628.148 445.267 632.922 450.206 632.922 456.132V759.177ZM266.337 40.1646H564.115V250.535C564.115 251.852 563.128 252.839 561.811 252.839H268.807C267.49 252.839 266.502 251.687 266.502 250.535V40.1646H266.337ZM40.4938 40.1646H226.173V250.535C226.173 274.074 245.267 293.169 268.807 293.169H561.811C585.35 293.169 604.444 274.074 604.444 250.535V63.7037L759.506 196.379V759.177H673.251V456.132C673.251 427.819 650.206 404.938 622.058 404.938H177.942C149.63 404.938 126.749 427.984 126.749 456.132V759.342H40.4938V40.1646Z" fill="black"/>
<path d="M374.321 127.737H462.881V181.399C462.881 192.593 471.934 201.646 483.128 201.646C494.321 201.646 503.375 192.593 503.375 181.399V107.654C503.375 96.4609 494.321 87.4074 483.128 87.4074H374.321C363.128 87.4074 354.074 96.4609 354.074 107.654C354.074 118.848 363.292 127.737 374.321 127.737Z" fill="black"/>
<path d="M501.235 531.358H298.765C287.572 531.358 278.519 540.411 278.519 551.605C278.519 562.798 287.572 571.852 298.765 571.852H501.235C512.428 571.852 521.481 562.798 521.481 551.605C521.481 540.411 512.428 531.358 501.235 531.358Z" fill="black"/>
<path d="M501.235 638.189H298.765C287.572 638.189 278.519 647.243 278.519 658.436C278.519 669.63 287.572 678.683 298.765 678.683H501.235C512.428 678.683 521.481 669.63 521.481 658.436C521.481 647.243 512.428 638.189 501.235 638.189Z" fill="black"/>
</svg>
